# Blender v2.79 (sub 0) OBJ File: ''
# www.blender.org
mtllib SpaceshipFire.mtl
v -0.410265 -0.410265 1.427912
v -0.410265 0.410265 1.427912
v -1.000000 -1.000000 -1.000000
v -1.000000 1.000000 -1.000000
v 0.410265 -0.410265 1.427912
v 0.410265 0.410265 1.427912
v 1.000000 -1.000000 -1.000000
v 1.000000 1.000000 -1.000000
v -0.281288 0.281288 -2.043880
v -0.281288 -0.281288 -2.043880
v 0.281288 -0.281288 -2.043880
v 0.281288 0.281288 -2.043880
vn -0.9717 0.0000 0.2360
vn -0.8237 0.0000 -0.5671
vn 0.9717 0.0000 0.2360
vn 0.0000 0.0000 1.0000
vn 0.0000 -0.9717 0.2360
vn 0.0000 0.9717 0.2360
vn 0.0000 0.0000 -1.0000
vn 0.8237 0.0000 -0.5671
vn 0.0000 -0.8237 -0.5671
vn 0.0000 0.8237 -0.5671
usemtl Material.002
s off
f 2//1 3//1 1//1
f 4//2 10//2 3//2
f 8//3 5//3 7//3
f 6//4 1//4 5//4
f 7//5 1//5 3//5
f 4//6 6//6 8//6
f 9//7 11//7 10//7
f 7//8 12//8 8//8
f 3//9 11//9 7//9
f 8//10 9//10 4//10
f 2//1 4//1 3//1
f 4//2 9//2 10//2
f 8//3 6//3 5//3
f 6//4 2//4 1//4
f 7//5 5//5 1//5
f 4//6 2//6 6//6
f 9//7 12//7 11//7
f 7//8 11//8 12//8
f 3//9 10//9 11//9
f 8//10 12//10 9//10
